<svg xmlns="http://www.w3.org/2000/svg" width="288" height="61" viewBox="0 0 288 61" fill="none"><path d="M59.6581 37.3572C55.6626 53.364 39.4334 63.1192 23.3964 59.1209C7.37317 55.1227 -2.37534 38.9098 1.62018 22.903C5.61569 6.88247 21.8449 -2.85899 37.8682 1.13927C53.8914 5.13753 63.6537 21.3504 59.6581 37.3572Z" fill="#F7941F"></path><path d="M37.3459 25.8156C36.426 29.5253 30.7142 27.6429 28.8606 27.1758L30.4945 20.6219C32.3481 21.0891 38.3207 21.941 37.3459 25.8156ZM36.3299 36.3814C35.3138 40.4484 28.4487 38.25 26.2244 37.7004L28.023 30.4871C30.2473 31.0367 37.3871 32.1358 36.3299 36.3814ZM43.8266 25.8705C44.417 21.8997 41.3963 19.7563 37.2498 18.3274L38.5954 12.9414L35.3138 12.1308L34.0094 17.3794C33.1444 17.1595 32.2657 16.9672 31.3869 16.7611L32.7051 11.485L29.4235 10.6606L28.0779 16.0466C27.364 15.8817 26.6637 15.7169 25.9772 15.552L21.4462 14.4116L20.5675 17.9152C20.5675 17.9152 22.9977 18.4786 22.9565 18.506C24.2884 18.8358 24.5218 19.7151 24.4806 20.4159L22.9428 26.5575C23.0389 26.585 23.1488 26.6125 23.2861 26.6674C23.1762 26.6399 23.0664 26.6125 22.9428 26.585L20.8009 35.1861C20.6361 35.5845 20.2242 36.1891 19.2906 35.9692C19.318 36.0104 16.9015 35.3784 16.9015 35.3784L15.2676 39.1294L19.5377 40.1873C20.3341 40.3797 21.1167 40.5995 21.8719 40.7919L20.5126 46.2465L23.7941 47.0709L25.1397 41.6712C26.0321 41.9185 26.9109 42.1384 27.7621 42.3445L26.4166 47.703L29.6981 48.5273L31.0574 43.0864C36.6594 44.1444 40.8609 43.7184 42.6321 38.6622C44.06 34.5953 42.5634 32.2458 39.6114 30.7069C41.7533 30.2123 43.3735 28.7971 43.7991 25.8843" fill="white"></path><path d="M78.5489 50.7122C80.3201 50.7122 81.9815 50.2726 83.5467 49.4207C85.112 48.5689 86.4713 47.4147 87.5972 45.972C88.7368 44.5294 89.6293 42.9081 90.2883 41.0944C90.9474 39.2808 91.2769 37.3847 91.2769 35.4199C91.2769 33.0017 90.8787 31.1194 90.0686 29.7454C89.2585 28.3852 87.7757 27.6982 85.6063 27.6982C84.8923 27.6982 83.9861 27.8356 82.8465 28.0692C81.7069 28.3302 80.6908 28.8661 79.7709 29.663L74.7731 50.3825C75.0751 50.4375 75.336 50.4924 75.5694 50.5336C75.7891 50.5886 76.0363 50.6161 76.2834 50.6436C76.5443 50.671 76.8464 50.6848 77.2033 50.6848C77.5603 50.6848 78.0134 50.6848 78.5626 50.6848M88.4073 18.3002C90.8375 18.3002 92.9245 18.7399 94.6957 19.5918C96.467 20.4574 97.9224 21.6115 99.1032 23.0679C100.257 24.5381 101.122 26.2555 101.671 28.2066C102.22 30.1714 102.495 32.2873 102.495 34.5543C102.495 38.0305 101.849 41.328 100.572 44.4332C99.2817 47.5384 97.5379 50.2314 95.3136 52.5259C93.0893 54.8204 90.4668 56.6341 87.4324 57.9668C84.4118 59.2996 81.1165 59.9728 77.6015 59.9728C77.1484 59.9728 76.3383 59.9728 75.2125 59.9316C74.0728 59.9041 72.7822 59.7942 71.313 59.5881C69.8439 59.382 68.2924 59.0797 66.6585 58.6813C65.0246 58.2828 63.4593 57.7195 62.0039 57.0188L75.1026 2.03239L86.842 0.21875L82.1463 19.7292C83.1486 19.2758 84.1646 18.9323 85.1669 18.6712C86.183 18.4239 87.2677 18.2865 88.421 18.2865" fill="#4D4D4D"></path><path d="M120.1 14.3294C118.535 14.3294 117.121 13.8623 115.858 12.928C114.594 12.0074 113.963 10.5785 113.963 8.65492C113.963 7.59696 114.182 6.6077 114.608 5.6734C115.034 4.7391 115.61 3.92845 116.311 3.2552C117.025 2.58196 117.835 2.03237 118.768 1.62018C119.702 1.22172 120.704 1.01562 121.762 1.01562C123.327 1.01562 124.741 1.48278 126.004 2.41708C127.267 3.35138 127.899 4.78031 127.899 6.69013C127.899 7.74809 127.679 8.75109 127.254 9.6854C126.828 10.6197 126.265 11.4166 125.551 12.1036C124.851 12.7768 124.027 13.3264 123.093 13.7249C122.16 14.1371 121.157 14.3294 120.1 14.3294ZM114.649 58.9561H103.445L112.905 19.1658H124.192L114.649 58.9561Z" fill="#4D4D4D"></path><path d="M134.008 9.25993L145.748 7.44629L142.864 19.18H155.428L153.162 28.3994H140.668L137.345 42.3177C137.043 43.4719 136.864 44.5573 136.809 45.5603C136.754 46.577 136.878 47.4426 137.18 48.1708C137.482 48.8991 138.018 49.4624 138.814 49.8608C139.597 50.273 140.709 50.4654 142.178 50.4654C143.386 50.4654 144.567 50.3555 145.707 50.1219C146.832 49.9021 147.986 49.586 149.153 49.1739L149.99 57.8024C148.48 58.352 146.832 58.8329 145.075 59.2313C143.304 59.6435 141.217 59.8359 138.787 59.8359C135.299 59.8359 132.608 59.3138 130.686 58.297C128.763 57.2665 127.404 55.8514 126.594 54.0514C125.798 52.2653 125.441 50.2043 125.537 47.8961C125.647 45.574 125.99 43.1284 126.594 40.559L134.022 9.2462L134.008 9.25993Z" fill="#4D4D4D"></path><path d="M154.945 43.0725C154.945 39.6513 155.495 36.4087 156.607 33.386C157.719 30.3633 159.312 27.7115 161.385 25.4444C163.444 23.1774 165.957 21.3912 168.923 20.0722C171.861 18.7669 175.17 18.1074 178.795 18.1074C181.074 18.1074 183.106 18.3273 184.891 18.7532C186.69 19.1929 188.31 19.7424 189.779 20.4569L185.921 29.2366C184.905 28.8244 183.861 28.4672 182.777 28.1374C181.692 27.8077 180.374 27.6428 178.809 27.6428C175.074 27.6428 172.108 28.9343 169.911 31.5037C167.714 34.073 166.616 37.5354 166.616 41.8772C166.616 44.4465 167.179 46.5212 168.291 48.115C169.403 49.7088 171.449 50.492 174.429 50.492C175.898 50.492 177.312 50.3408 178.671 50.0385C180.044 49.7363 181.239 49.3516 182.31 48.8981L183.147 57.8977C181.733 58.4473 180.168 58.9419 178.452 59.3816C176.735 59.8075 174.689 60.0136 172.314 60.0136C169.184 60.0136 166.534 59.5602 164.364 58.6534C162.195 57.7328 160.396 56.5237 158.996 54.9848C157.582 53.446 156.552 51.6324 155.934 49.5714C155.302 47.5104 154.987 45.3258 154.987 43.0725" fill="#4D4D4D"></path><path d="M210.321 27.6434C208.66 27.6434 207.191 28.1242 205.941 29.0723C204.678 30.0341 203.621 31.2432 202.77 32.6996C201.905 34.1697 201.273 35.7635 200.834 37.5085C200.408 39.2534 200.188 40.9022 200.188 42.4685C200.188 44.9966 200.6 46.9614 201.397 48.3766C202.207 49.7781 203.676 50.4925 205.79 50.4925C207.452 50.4925 208.921 50.0116 210.184 49.0498C211.433 48.0881 212.504 46.879 213.356 45.4226C214.221 43.9661 214.866 42.3586 215.292 40.6137C215.717 38.8824 215.937 37.2199 215.937 35.6536C215.937 33.1392 215.525 31.1607 214.729 29.7455C213.919 28.3441 212.449 27.6296 210.335 27.6296M204.733 60.0004C202.056 60.0004 199.735 59.5882 197.758 58.7913C195.795 57.9807 194.161 56.854 192.884 55.3839C191.593 53.9275 190.632 52.1963 189.973 50.204C189.314 48.2117 188.998 45.9996 188.998 43.5952C188.998 40.5587 189.479 37.536 190.467 34.5132C191.442 31.4905 192.897 28.77 194.82 26.3518C196.728 23.9336 199.09 21.9551 201.85 20.4025C204.623 18.8637 207.809 18.0942 211.378 18.0942C214.001 18.0942 216.321 18.5064 218.312 19.3033C220.303 20.114 221.937 21.2544 223.228 22.7108C224.505 24.1809 225.479 25.8984 226.139 27.8907C226.798 29.8829 227.127 32.095 227.127 34.5132C227.127 37.536 226.647 40.5587 225.699 43.5952C224.738 46.6042 223.324 49.3384 221.456 51.7566C219.589 54.1748 217.255 56.1533 214.454 57.6921C211.653 59.231 208.413 60.0004 204.719 60.0004" fill="#4D4D4D"></path><path d="M244.784 14.3294C243.219 14.3294 241.804 13.8623 240.541 12.928C239.278 12.0074 238.646 10.5785 238.646 8.65492C238.646 7.59696 238.866 6.6077 239.292 5.6734C239.717 4.7391 240.294 3.92845 240.994 3.2552C241.695 2.58196 242.532 2.03237 243.452 1.62018C244.386 1.22172 245.374 1.01562 246.431 1.01562C247.997 1.01562 249.411 1.48278 250.674 2.41708C251.937 3.35138 252.569 4.78031 252.569 6.69013C252.569 7.74809 252.349 8.75109 251.924 9.6854C251.498 10.6197 250.935 11.4166 250.221 12.1036C249.507 12.7768 248.697 13.3264 247.763 13.7249C246.83 14.1371 245.827 14.3294 244.77 14.3294M239.319 58.9561H228.102L237.562 19.1658H248.848L239.305 58.9561H239.319Z" fill="#4D4D4D"></path><path d="M256.963 20.9802C257.814 20.7329 258.762 20.4306 259.791 20.1146C260.835 19.7849 261.988 19.4826 263.279 19.2078C264.556 18.9193 265.997 18.6994 267.59 18.5208C269.183 18.3422 270.981 18.2598 273 18.2598C278.904 18.2598 282.982 19.9772 285.234 23.4122C287.485 26.8334 287.87 31.5323 286.414 37.4816L281.265 58.9568H269.979L274.977 37.9213C275.279 36.616 275.526 35.3382 275.705 34.1017C275.883 32.8788 275.869 31.7934 275.664 30.8454C275.471 29.9248 274.991 29.1554 274.263 28.5783C273.522 28.0012 272.409 27.7127 270.885 27.7127C269.361 27.7127 267.933 27.8638 266.423 28.1661L259.077 58.9431H247.791L256.963 20.9802Z" fill="#4D4D4D"></path></svg>