<svg xmlns="http://www.w3.org/2000/svg" width="210" height="74" viewBox="0 0 210 74" fill="none"><path d="M125.64 17.7417C124.234 16.2435 122.018 15.7476 120.024 15.7476C116.842 15.7476 113.659 17.3077 113.659 20.8672C113.659 26.6377 121.553 24.5816 121.553 27.0149C121.553 27.8259 120.494 28.1049 119.43 28.1049C118.025 28.1049 116.997 27.5108 116.124 26.4518L113.282 29.6031C114.78 31.1323 117.121 31.6644 119.244 31.6644C122.488 31.6644 126.234 30.5381 126.234 26.6687C126.234 20.8982 118.34 22.7993 118.34 20.552C118.34 19.648 119.275 19.3018 120.055 19.3018C121.181 19.3018 122.085 19.7358 122.772 20.583L125.645 17.7417H125.64Z" fill="#231F20"></path><path d="M113.623 9.18701H109.129L106.819 17.9901H110.818L113.623 9.18701Z" fill="#231F20"></path><path d="M96.0851 15.7422C91.4046 15.7422 87.6592 18.8625 87.6592 23.698C87.6592 28.5335 91.4046 31.6538 96.0851 31.6538C100.766 31.6538 104.511 28.5335 104.511 23.698C104.511 18.8625 100.766 15.7422 96.0851 15.7422ZM96.0851 27.5364C93.7449 27.5364 92.3397 25.9763 92.3397 23.698C92.3397 21.4198 93.7449 19.8596 96.0851 19.8596C98.4254 19.8596 99.8306 21.4198 99.8306 23.698C99.8306 25.9763 98.4254 27.5364 96.0851 27.5364Z" fill="#231F20"></path><path d="M70.3105 31.2819H74.991V23.729C74.991 21.7607 75.3682 19.8596 77.8014 19.8596C80.2347 19.8596 80.2347 22.1068 80.2347 23.853V31.2819H84.9152V22.9179C84.9152 18.8625 84.0421 15.7422 79.2996 15.7422C77.0213 15.7422 75.4922 16.9924 74.8671 18.1754H74.8051V16.1141H70.3105V31.2819Z" fill="#231F20"></path><path d="M60.4486 15.7422C57.9844 15.7422 55.484 16.5533 53.7688 18.1754L56.264 20.7327C57.2611 19.6116 58.5423 18.9245 60.0715 18.9245C61.6936 18.9245 63.0678 19.9836 63.0678 21.6419C59.1674 21.6419 52.8027 21.7349 52.8027 26.9785C52.8027 30.0368 55.36 31.659 58.2013 31.659C60.1076 31.659 61.9778 31.0029 63.0058 29.3807H63.0678V31.2819H67.3763V23.574C67.3763 18.5164 65.9092 15.7422 60.4486 15.7422ZM63.0678 25.6353C63.0678 27.5054 61.3527 28.4767 59.5084 28.4767C58.4803 28.4767 57.2921 27.9446 57.2921 26.8235C57.2921 24.7622 60.4744 24.6382 61.9106 24.6382H63.0678V25.6353Z" fill="#231F20"></path><path d="M45.4975 16.1195V18.1188H45.4355C44.7175 17.0288 42.9093 15.7476 40.2539 15.7476C35.9454 15.7476 33.3262 19.617 33.3262 23.6414C33.3262 28.2289 36.2915 31.4732 40.786 31.4732C42.1912 31.4732 43.9994 30.9411 45.0636 29.4739H45.1256V30.9411C45.1256 33.0954 43.7824 34.6555 40.941 34.6555C39.0399 34.6555 37.4487 33.9065 36.0126 32.6924L33.4243 36.5618C35.6096 38.308 38.358 38.7781 41.0392 38.7781C46.9079 38.7781 49.8061 35.7198 49.8061 30.0112V16.1247H45.4975V16.1195ZM41.7521 27.3558C39.6288 27.3558 38.0067 25.5787 38.0067 23.6104C38.0067 21.6421 39.6288 19.865 41.7521 19.865C43.8754 19.865 45.4975 21.6421 45.4975 23.6104C45.4975 25.5787 43.8754 27.3558 41.7521 27.3558Z" fill="#231F20"></path><path d="M30.5841 16.1196H25.9036V23.6725C25.9036 25.6408 25.5316 27.5419 23.0932 27.5419C20.6548 27.5419 20.66 25.2947 20.66 23.5485V16.1196H15.9795V24.4836C15.9795 28.539 16.8526 31.6593 21.5951 31.6593C23.8733 31.6593 25.4025 30.4091 26.0276 29.2261H26.0896V31.2873H30.5841V16.1196Z" fill="#231F20"></path><path d="M0 31.2825H13.8865V26.7931H4.86648V9.18701H0V31.2825Z" fill="#231F20"></path><path d="M109.866 62.372H114.546V54.8191C114.546 52.8508 114.918 50.9497 117.356 50.9497C119.795 50.9497 119.79 53.197 119.79 54.9431V62.372H124.47V54.008C124.47 49.9526 123.597 46.8323 118.855 46.8323C116.576 46.8323 115.047 48.0825 114.422 49.2655H114.36V47.2043H109.866V62.372ZM102.628 55.7232V56.7202C102.628 58.5904 100.913 59.5616 99.0684 59.5616C98.0403 59.5616 96.8521 59.0295 96.8521 57.9084C96.8521 55.8472 100.034 55.7232 101.471 55.7232H102.628ZM102.628 62.372H106.936V54.6641C106.936 49.6065 105.469 46.8323 100.009 46.8323C97.5444 46.8323 95.0491 47.6434 93.3288 49.2655L95.824 51.8228C96.8211 50.7017 98.1023 50.0146 99.6315 50.0146C101.254 50.0146 102.628 51.0737 102.628 52.732C98.7274 52.732 92.3628 52.825 92.3628 58.0686C92.3628 61.1269 94.92 62.7491 97.7613 62.7491C99.6625 62.7491 101.538 62.093 102.566 60.4708H102.628V62.372ZM85.0579 62.372H89.7384V38.7783H85.0579V62.372ZM70.7942 44.3939H73.2894C75.1596 44.3939 77.4688 44.7039 77.4688 46.9821C77.4688 49.0434 75.7537 49.6323 74.0334 49.6323H70.7891V44.3887L70.7942 44.3939ZM65.9277 62.372H70.7942V53.7601H74.3537C79.0032 53.7601 82.5316 52.1689 82.5316 46.9873C82.5316 41.8057 78.7242 40.2765 74.1367 40.2765H65.9277V62.372Z" fill="#231F20"></path><path d="M208.9 45.8984C203.965 65.6976 183.912 77.7457 164.107 72.8108C144.314 67.8759 132.265 47.8172 137.2 28.0234C142.135 8.21883 162.189 -3.82932 181.982 1.10561C201.782 6.04054 213.83 26.0992 208.895 45.8984H208.9Z" fill="#F7931A"></path><path d="M189.344 31.6938C190.079 26.7751 186.333 24.132 181.214 22.3699L182.874 15.7107L178.82 14.6999L177.203 21.1862C176.139 20.9213 175.041 20.6727 173.955 20.424L175.582 13.8946L171.528 12.8838L169.869 19.543C168.988 19.343 168.117 19.143 167.28 18.9322V18.9106L161.691 17.516L160.61 21.8456C160.61 21.8456 163.62 22.5374 163.555 22.5753C165.199 22.9861 165.496 24.0725 165.447 24.9319L163.555 32.5208C163.669 32.5478 163.815 32.5911 163.977 32.6559C163.842 32.6235 163.696 32.5857 163.55 32.5478L160.896 43.1798C160.696 43.6771 160.188 44.4284 159.037 44.142C159.074 44.2014 156.091 43.4069 156.091 43.4069L154.08 48.0499L159.356 49.3688C160.339 49.612 161.301 49.8715 162.247 50.1147L160.572 56.855L164.62 57.8657L166.28 51.1957C167.388 51.4984 168.458 51.7741 169.512 52.0335L167.858 58.6657L171.912 59.6765L173.587 52.9524C180.501 54.2605 185.7 53.7308 187.89 47.4824C189.652 42.4501 187.803 39.5422 184.165 37.6449C186.814 37.0341 188.808 35.2883 189.344 31.6884V31.6938ZM180.079 44.6825C178.825 49.7147 170.35 46.9959 167.598 46.3148L169.825 37.3855C172.577 38.0719 181.387 39.4286 180.079 44.6825ZM181.333 31.6182C180.187 36.2017 173.133 33.8721 170.842 33.2992L172.863 25.2022C175.149 25.7752 182.522 26.84 181.333 31.6182Z" fill="white"></path></svg>