<svg xmlns="http://www.w3.org/2000/svg" width="236" height="50" viewBox="0 0 236 50" fill="none"><path d="M113.313 20.5192C112.046 19.168 110.047 18.7207 108.248 18.7207C105.378 18.7207 102.508 20.1278 102.508 23.338C102.508 28.5424 109.627 26.688 109.627 28.8825C109.627 29.614 108.672 29.8656 107.712 29.8656C106.445 29.8656 105.518 29.3298 104.731 28.3746L102.168 31.2168C103.519 32.5959 105.63 33.0758 107.545 33.0758C110.471 33.0758 113.849 32.0601 113.849 28.5703C113.849 23.366 106.729 25.0806 106.729 23.0538C106.729 22.2384 107.573 21.9263 108.276 21.9263C109.292 21.9263 110.107 22.3176 110.727 23.0817L113.318 20.5192H113.313Z" fill="white"></path><path d="M102.475 12.8032H98.4215L96.3389 20.7426H99.9451L102.475 12.8032Z" fill="white"></path><path d="M86.6568 18.7158C82.4356 18.7158 79.0576 21.53 79.0576 25.891C79.0576 30.2521 82.4356 33.0663 86.6568 33.0663C90.8781 33.0663 94.256 30.2521 94.256 25.891C94.256 21.53 90.8781 18.7158 86.6568 18.7158ZM86.6568 29.3528C84.5462 29.3528 83.2789 27.9458 83.2789 25.891C83.2789 23.8363 84.5462 22.4292 86.6568 22.4292C88.7675 22.4292 90.0348 23.8363 90.0348 25.891C90.0348 27.9458 88.7675 29.3528 86.6568 29.3528Z" fill="white"></path><path d="M63.4121 32.7308H67.6334V25.919C67.6334 24.1438 67.9735 22.4292 70.168 22.4292C72.3625 22.4292 72.3625 24.456 72.3625 26.0308V32.7308H76.5838V25.1875C76.5838 21.53 75.7963 18.7158 71.5192 18.7158C69.4644 18.7158 68.0853 19.8434 67.5215 20.9103H67.4656V19.0513H63.4121V32.7308Z" fill="white"></path><path d="M54.5177 18.7158C52.2953 18.7158 50.0402 19.4473 48.4933 20.9103L50.7438 23.2166C51.643 22.2056 52.7985 21.5859 54.1776 21.5859C55.6406 21.5859 56.88 22.541 56.88 24.0367C53.3622 24.0367 47.6221 24.1205 47.6221 28.8497C47.6221 31.6079 49.9284 33.0709 52.491 33.0709C54.2102 33.0709 55.8969 32.4792 56.8241 31.0162H56.88V32.7308H60.7658V25.7792C60.7658 21.2178 59.4425 18.7158 54.5177 18.7158ZM56.88 27.6383C56.88 29.3249 55.3331 30.2008 53.6698 30.2008C52.7426 30.2008 51.6709 29.7209 51.6709 28.7099C51.6709 26.8508 54.541 26.739 55.8363 26.739H56.88V27.6383Z" fill="white"></path><path d="M41.0338 19.0562V20.8593H40.9779C40.3302 19.8762 38.6995 18.7207 36.3047 18.7207C32.4189 18.7207 30.0566 22.2105 30.0566 25.84C30.0566 29.9774 32.731 32.9034 36.7846 32.9034C38.0519 32.9034 39.6826 32.4235 40.6424 31.1003H40.6983V32.4235C40.6983 34.3664 39.4869 35.7735 36.9243 35.7735C35.2098 35.7735 33.7747 35.0979 32.4794 34.003L30.1452 37.4928C32.116 39.0676 34.5947 39.4916 37.0129 39.4916C42.3058 39.4916 44.9196 36.7333 44.9196 31.5848V19.0608H41.0338V19.0562ZM37.6558 29.19C35.7409 29.19 34.2779 27.5872 34.2779 25.8121C34.2779 24.0369 35.7409 22.4341 37.6558 22.4341C39.5708 22.4341 41.0338 24.0369 41.0338 25.8121C41.0338 27.5872 39.5708 29.19 37.6558 29.19Z" fill="white"></path><path d="M27.5828 19.0562H23.3615V25.8679C23.3615 27.6431 23.0261 29.3577 20.8269 29.3577C18.6277 29.3577 18.6324 27.3309 18.6324 25.7561V19.0562H14.4111V26.5994C14.4111 30.2569 15.1985 33.0711 19.4757 33.0711C21.5304 33.0711 22.9096 31.9436 23.4733 30.8766H23.5293V32.7357H27.5828V19.0562Z" fill="white"></path><path d="M0 32.7308H12.524V28.6819H4.389V12.8032H0V32.7308Z" fill="white"></path><path d="M164.508 32.7309H168.729V25.9191C168.729 24.1439 169.064 22.4293 171.264 22.4293C173.463 22.4293 173.458 24.4561 173.458 26.0309V32.7309H177.679V25.1876C177.679 21.5301 176.892 18.7159 172.615 18.7159C170.56 18.7159 169.181 19.8434 168.617 20.9104H168.561V19.0514H164.508V32.7309ZM157.98 26.7344V27.6337C157.98 29.3203 156.433 30.1962 154.77 30.1962C153.843 30.1962 152.771 29.7163 152.771 28.7053C152.771 26.8463 155.641 26.7344 156.936 26.7344H157.98ZM157.98 32.7309H161.866V25.7793C161.866 21.2179 160.543 18.7159 155.618 18.7159C153.395 18.7159 151.145 19.4474 149.593 20.9104L151.844 23.2167C152.743 22.2057 153.899 21.586 155.278 21.586C156.741 21.586 157.98 22.5411 157.98 24.0367C154.462 24.0367 148.722 24.1206 148.722 28.8497C148.722 31.608 151.028 33.071 153.591 33.071C155.306 33.071 156.997 32.4793 157.924 31.0163H157.98V32.7309ZM142.134 32.7309H146.355V11.4521H142.134V32.7309ZM129.27 16.5167H131.52C133.207 16.5167 135.29 16.7963 135.29 18.851C135.29 20.71 133.743 21.2412 132.191 21.2412H129.265V16.5121L129.27 16.5167ZM124.881 32.7309H129.27V24.9639H132.48C136.673 24.9639 139.856 23.5289 139.856 18.8557C139.856 14.1825 136.422 12.8033 132.284 12.8033H124.881V32.7309Z" fill="white"></path><path d="M187.11 18.8196C190.424 5.5194 203.891 -2.57162 217.184 0.742486C230.48 4.05664 238.572 17.527 235.258 30.8235H235.261C231.947 44.1201 218.48 52.2117 205.18 48.8978C191.887 45.5836 183.796 32.1126 187.11 18.8196ZM209.049 13.1243C208.458 12.9901 207.873 12.8557 207.311 12.7142V12.6995L203.557 11.763L202.831 14.6702C202.861 14.6771 204.852 15.1352 204.809 15.1605C205.912 15.4363 206.112 16.1663 206.079 16.7435L204.809 21.8392C204.885 21.8573 204.983 21.8865 205.092 21.93C205.002 21.9082 204.904 21.8831 204.806 21.8577L203.024 28.9974C202.889 29.3313 202.548 29.8362 201.775 29.6439C201.8 29.6838 199.798 29.1511 199.796 29.1507L198.446 32.2689L201.989 33.1546C202.649 33.3179 203.296 33.4922 203.931 33.6556L202.806 38.1819L205.525 38.8606L206.639 34.3812C207.383 34.5844 208.102 34.7694 208.81 34.9437L207.699 39.3978L210.421 40.0765L211.546 35.5608C216.189 36.4393 219.681 36.0833 221.152 31.887C222.335 28.5077 221.094 26.5547 218.651 25.2806C220.429 24.8703 221.769 23.698 222.128 21.2806V21.2845C222.622 17.9812 220.106 16.2061 216.668 15.0228L217.783 10.5501L215.061 9.87139L213.975 14.2278C213.26 14.05 212.523 13.8821 211.793 13.7151L212.886 9.33038L210.163 8.65167L209.049 13.1243ZM209.02 25.1067C210.867 25.5678 216.785 26.4788 215.907 30.0071C215.064 33.3865 209.372 31.5602 207.525 31.1028L209.02 25.1067ZM211.06 16.9241C212.595 17.3089 217.547 18.0248 216.748 21.2337C215.978 24.3114 211.241 22.7474 209.702 22.3626L211.06 16.9241Z" fill="white"></path></svg>