<svg xmlns="http://www.w3.org/2000/svg" width="210" height="74" viewBox="0 0 210 74" fill="none"><path d="M125.641 17.7422C124.235 16.244 122.019 15.748 120.025 15.748C116.843 15.748 113.66 17.3082 113.66 20.8677C113.66 26.6382 121.554 24.5821 121.554 27.0153C121.554 27.8264 120.495 28.1054 119.431 28.1054C118.026 28.1054 116.998 27.5113 116.125 26.4522L113.283 29.6036C114.781 31.1327 117.122 31.6648 119.245 31.6648C122.489 31.6648 126.235 30.5386 126.235 26.6692C126.235 20.8987 118.341 22.7998 118.341 20.5525C118.341 19.6485 119.276 19.3023 120.056 19.3023C121.182 19.3023 122.086 19.7363 122.773 20.5835L125.646 17.7422H125.641Z" fill="white"></path><path d="M113.623 9.18701H109.129L106.819 17.9901H110.818L113.623 9.18701Z" fill="white"></path><path d="M96.0851 15.7422C91.4046 15.7422 87.6592 18.8625 87.6592 23.698C87.6592 28.5335 91.4046 31.6538 96.0851 31.6538C100.766 31.6538 104.511 28.5335 104.511 23.698C104.511 18.8625 100.766 15.7422 96.0851 15.7422ZM96.0851 27.5364C93.7449 27.5364 92.3397 25.9763 92.3397 23.698C92.3397 21.4197 93.7449 19.8596 96.0851 19.8596C98.4254 19.8596 99.8306 21.4197 99.8306 23.698C99.8306 25.9763 98.4254 27.5364 96.0851 27.5364Z" fill="white"></path><path d="M70.3105 31.2819H74.991V23.729C74.991 21.7607 75.3682 19.8596 77.8014 19.8596C80.2347 19.8596 80.2347 22.1068 80.2347 23.853V31.2819H84.9152V22.9179C84.9152 18.8625 84.0421 15.7422 79.2996 15.7422C77.0213 15.7422 75.4922 16.9924 74.8671 18.1754H74.8051V16.1141H70.3105V31.2819Z" fill="white"></path><path d="M60.4486 15.7422C57.9844 15.7422 55.4839 16.5533 53.7688 18.1754L56.264 20.7327C57.2611 19.6116 58.5423 18.9245 60.0715 18.9245C61.6936 18.9245 63.0678 19.9836 63.0678 21.6419C59.1674 21.6419 52.8027 21.7349 52.8027 26.9785C52.8027 30.0368 55.36 31.659 58.2013 31.659C60.1076 31.659 61.9778 31.0029 63.0058 29.3807H63.0678V31.2819H67.3763V23.574C67.3763 18.5164 65.9092 15.7422 60.4486 15.7422ZM63.0678 25.6353C63.0678 27.5054 61.3527 28.4767 59.5084 28.4767C58.4803 28.4767 57.2921 27.9446 57.2921 26.8235C57.2921 24.7622 60.4744 24.6382 61.9106 24.6382H63.0678V25.6353Z" fill="white"></path><path d="M45.4975 16.12V18.1193H45.4355C44.7175 17.0292 42.9093 15.748 40.2539 15.748C35.9454 15.748 33.3262 19.6175 33.3262 23.6419C33.3262 28.2294 36.2915 31.4737 40.786 31.4737C42.1912 31.4737 43.9994 30.9416 45.0636 29.4744H45.1256V30.9416C45.1256 33.0959 43.7824 34.656 40.941 34.656C39.0399 34.656 37.4487 33.9069 36.0126 32.6929L33.4243 36.5623C35.6096 38.3085 38.358 38.7786 41.0392 38.7786C46.9079 38.7786 49.8061 35.7202 49.8061 30.0117V16.1252H45.4975V16.12ZM41.7521 27.3563C39.6288 27.3563 38.0067 25.5792 38.0067 23.6109C38.0067 21.6426 39.6288 19.8654 41.7521 19.8654C43.8754 19.8654 45.4975 21.6426 45.4975 23.6109C45.4975 25.5792 43.8754 27.3563 41.7521 27.3563Z" fill="white"></path><path d="M30.5841 16.1196H25.9036V23.6725C25.9036 25.6408 25.5316 27.5419 23.0932 27.5419C20.6548 27.5419 20.66 25.2946 20.66 23.5485V16.1196H15.9795V24.4836C15.9795 28.539 16.8526 31.6593 21.5951 31.6593C23.8733 31.6593 25.4025 30.4091 26.0276 29.2261H26.0896V31.2873H30.5841V16.1196Z" fill="white"></path><path d="M0 31.2825H13.8865V26.7931H4.86648V9.18701H0V31.2825Z" fill="white"></path><path d="M109.866 62.372H114.546V54.8191C114.546 52.8508 114.918 50.9497 117.356 50.9497C119.795 50.9497 119.79 53.1969 119.79 54.9431V62.372H124.47V54.008C124.47 49.9526 123.597 46.8323 118.855 46.8323C116.576 46.8323 115.047 48.0825 114.422 49.2655H114.36V47.2043H109.866V62.372ZM102.628 55.7232V56.7202C102.628 58.5904 100.913 59.5616 99.0684 59.5616C98.0403 59.5616 96.8521 59.0295 96.8521 57.9084C96.8521 55.8472 100.034 55.7232 101.471 55.7232H102.628ZM102.628 62.372H106.936V54.6641C106.936 49.6065 105.469 46.8323 100.009 46.8323C97.5444 46.8323 95.0491 47.6434 93.3288 49.2655L95.824 51.8228C96.8211 50.7017 98.1023 50.0146 99.6315 50.0146C101.254 50.0146 102.628 51.0737 102.628 52.732C98.7274 52.732 92.3628 52.825 92.3628 58.0686C92.3628 61.1269 94.92 62.7491 97.7613 62.7491C99.6625 62.7491 101.538 62.093 102.566 60.4708H102.628V62.372ZM85.0579 62.372H89.7384V38.7783H85.0579V62.372ZM70.7942 44.3939H73.2894C75.1596 44.3939 77.4688 44.7039 77.4688 46.9821C77.4688 49.0434 75.7537 49.6323 74.0334 49.6323H70.7891V44.3887L70.7942 44.3939ZM65.9277 62.372H70.7942V53.7601H74.3537C79.0032 53.7601 82.5316 52.1689 82.5316 46.9873C82.5316 41.8057 78.7242 40.2765 74.1367 40.2765H65.9277V62.372Z" fill="white"></path><path d="M137.2 28.0236C142.135 8.21898 162.189 -3.82933 181.983 1.1056C201.782 6.04057 213.83 26.0994 208.895 45.8986H208.901C203.966 65.6977 183.912 77.7456 164.108 72.8107C144.314 67.8757 132.265 47.8173 137.2 28.0236ZM169.869 19.5431C168.988 19.3431 168.117 19.1436 167.279 18.9327V18.9103L161.691 17.5158L160.61 21.8458C160.61 21.8458 163.619 22.5371 163.556 22.5753C165.199 22.9861 165.496 24.0724 165.447 24.9318L163.556 32.5206C163.669 32.5477 163.816 32.5915 163.978 32.6564C163.843 32.6239 163.696 32.5858 163.55 32.548L160.897 43.1798C160.697 43.6771 160.188 44.4281 159.037 44.1417C159.075 44.2012 156.091 43.4074 156.091 43.4074L154.08 48.0499L159.356 49.3693C160.339 49.6125 161.302 49.8712 162.248 50.1144L160.572 56.8546L164.62 57.8654L166.28 51.1954C167.388 51.4981 168.458 51.7739 169.512 52.0333L167.859 58.6661L171.912 59.6769L173.588 52.9523C180.501 54.2603 185.701 53.7308 187.89 47.4826C189.652 42.4504 187.804 39.5419 184.166 37.6447C186.814 37.0338 188.809 35.2882 189.344 31.6886V31.6935C190.079 26.775 186.333 24.1323 181.214 22.3702L182.874 15.7111L178.82 14.7003L177.204 21.1867C176.139 20.9218 175.042 20.6726 173.955 20.424L175.582 13.8947L171.528 12.8839L169.869 19.5431ZM169.825 37.3859C172.577 38.0723 181.387 39.4289 180.079 44.6827C178.825 49.7147 170.35 46.9956 167.599 46.3146L169.825 37.3859ZM172.863 25.2023C175.15 25.7752 182.522 26.8401 181.333 31.6183C180.187 36.2017 173.134 33.8719 170.842 33.299L172.863 25.2023Z" fill="white"></path></svg>