<svg xmlns="http://www.w3.org/2000/svg" width="144" height="240" viewBox="0 0 144 240" fill="none"><path d="M2.14776 150.848C11.7344 112.375 50.6903 88.9703 89.1419 98.5569C127.604 108.144 151.009 147.11 141.422 185.572H141.433C131.846 224.033 92.8907 247.438 54.4183 237.852C15.9667 228.265 -7.43877 189.299 2.14776 150.848ZM65.6116 134.373C63.9002 133.985 62.2098 133.596 60.5823 133.187V133.145L49.7249 130.436L47.6253 138.846C47.6786 138.858 53.4724 140.191 53.347 140.264C56.539 141.062 57.1173 143.173 57.0228 144.842L53.347 159.584C53.5674 159.637 53.8514 159.72 54.1663 159.846C53.9039 159.783 53.6206 159.709 53.3372 159.636L48.181 180.29C47.7924 181.256 46.8057 182.716 44.5696 182.159C44.6311 182.271 38.88 180.74 38.847 180.731L34.9407 189.751L45.1888 192.313C47.0997 192.785 48.9686 193.29 50.806 193.762L47.5511 206.856L55.4163 208.819L58.6399 195.862C60.7923 196.45 62.8709 196.986 64.9183 197.49L61.7054 210.373L69.5804 212.336L72.8362 199.275C86.2656 201.816 96.3669 200.786 100.619 188.649C104.042 178.873 100.451 173.224 93.3851 169.538C98.5299 168.352 102.404 164.96 103.444 157.967V157.978C104.872 148.423 97.5953 143.288 87.6517 139.865L90.8753 126.928L83.0003 124.965L79.8606 137.565C77.7922 137.05 75.6606 136.567 73.5501 136.084L76.7103 123.401L68.8353 121.437L65.6116 134.373ZM65.5276 169.034C70.8723 170.368 87.9876 173.003 85.4466 183.209C83.0105 192.985 66.5461 187.703 61.2015 186.38L65.5276 169.034ZM71.429 145.366C75.8708 146.48 90.1921 148.548 87.8821 157.83C85.656 166.734 71.9533 162.209 67.5013 161.096L71.429 145.366Z" fill="white"></path><path d="M128.415 7.74856C127.143 6.39159 125.135 5.94238 123.329 5.94238C120.447 5.94238 117.564 7.35551 117.564 10.5795C117.564 15.8062 124.714 13.9439 124.714 16.1478C124.714 16.8824 123.755 17.1351 122.791 17.1351C121.518 17.1351 120.587 16.597 119.796 15.6377L117.223 18.4921C118.58 19.8771 120.699 20.3591 122.623 20.3591C125.561 20.3591 128.954 19.339 128.954 15.8343C128.954 10.6076 121.804 12.3295 121.804 10.2941C121.804 9.4752 122.651 9.16169 123.357 9.16169C124.377 9.16169 125.196 9.55475 125.818 10.3221L128.42 7.74856H128.415Z" fill="white"></path><path d="M117.532 0H113.461L111.369 7.9734H114.991L117.532 0Z" fill="white"></path><path d="M101.646 5.93848C97.4061 5.93848 94.0137 8.76473 94.0137 13.1445C94.0137 17.5242 97.4061 20.3505 101.646 20.3505C105.885 20.3505 109.277 17.5242 109.277 13.1445C109.277 8.76473 105.885 5.93848 101.646 5.93848ZM101.646 16.6212C99.5258 16.6212 98.2531 15.208 98.2531 13.1445C98.2531 11.0809 99.5258 9.66782 101.646 9.66782C103.765 9.66782 105.038 11.0809 105.038 13.1445C105.038 15.208 103.765 16.6212 101.646 16.6212Z" fill="white"></path><path d="M78.3008 20.0136H82.5402V13.1726C82.5402 11.3898 82.8818 9.66782 85.0857 9.66782C87.2896 9.66782 87.2896 11.7033 87.2896 13.2849V20.0136H91.529V12.4379C91.529 8.76473 90.7382 5.93848 86.4427 5.93848C84.3791 5.93848 82.9941 7.07085 82.4279 8.14239H82.3717V6.27538H78.3008V20.0136Z" fill="white"></path><path d="M69.3677 5.93848C67.1357 5.93848 64.8709 6.67312 63.3174 8.14239L65.5775 10.4586C66.4806 9.44322 67.641 8.82088 69.0261 8.82088C70.4954 8.82088 71.74 9.78012 71.74 11.2822C68.2072 11.2822 62.4424 11.3664 62.4424 16.1158C62.4424 18.8859 64.7586 20.3552 67.3322 20.3552C69.0588 20.3552 70.7527 19.7609 71.6839 18.2916H71.74V20.0136H75.6425V13.0322C75.6425 8.45122 74.3136 5.93848 69.3677 5.93848ZM71.74 14.8992C71.74 16.5931 70.1865 17.4728 68.516 17.4728C67.5849 17.4728 66.5086 16.9908 66.5086 15.9754C66.5086 14.1084 69.3911 13.9961 70.6919 13.9961H71.74V14.8992Z" fill="white"></path><path d="M55.8261 6.27929V8.09015H55.7699C55.1195 7.10283 53.4818 5.94238 51.0766 5.94238C47.1741 5.94238 44.8018 9.44712 44.8018 13.0922C44.8018 17.2474 47.4876 20.186 51.5586 20.186C52.8313 20.186 54.4691 19.704 55.433 18.3751H55.4892V19.704C55.4892 21.6552 54.2725 23.0684 51.699 23.0684C49.977 23.0684 48.5358 22.3899 47.235 21.2902L44.8907 24.795C46.87 26.3766 49.3593 26.8024 51.7879 26.8024C57.1035 26.8024 59.7285 24.0323 59.7285 18.8617V6.28397H55.8261V6.27929ZM52.4336 16.4566C50.5104 16.4566 49.0412 14.847 49.0412 13.0642C49.0412 11.2814 50.5104 9.67173 52.4336 9.67173C54.3568 9.67173 55.8261 11.2814 55.8261 13.0642C55.8261 14.847 54.3568 16.4566 52.4336 16.4566Z" fill="white"></path><path d="M42.3171 6.27979H38.0777V13.1208C38.0777 14.9036 37.7408 16.6256 35.5322 16.6256C33.3236 16.6256 33.3283 14.5901 33.3283 13.0085V6.27979H29.0889V13.8555C29.0889 17.5286 29.8797 20.3549 34.1752 20.3549C36.2388 20.3549 37.6238 19.2225 38.19 18.151H38.2462V20.018H42.3171V6.27979Z" fill="white"></path><path d="M14.6162 20.0131H27.194V15.9468H19.0241V0H14.6162V20.0131Z" fill="white"></path><path d="M100.277 82.2545H109.369V67.5823C109.369 63.7587 110.092 60.0655 114.829 60.0655C119.566 60.0655 119.556 64.4311 119.556 67.8232V82.2545H128.648V66.0067C128.648 58.1286 126.952 52.0671 117.739 52.0671C113.313 52.0671 110.343 54.4957 109.128 56.7939H109.008V52.7896H100.277V82.2545ZM86.2169 69.3385V71.2754C86.2169 74.9084 82.885 76.7951 79.3022 76.7951C77.3051 76.7951 74.9969 75.7614 74.9969 73.5837C74.9969 69.5794 81.1789 69.3385 83.9688 69.3385H86.2169ZM86.2169 82.2545H94.5867V67.2812C94.5867 57.4563 91.7365 52.0671 81.1287 52.0671C76.3417 52.0671 71.4944 53.6427 68.1525 56.7939L72.9998 61.7616C74.9367 59.5838 77.4255 58.2491 80.3961 58.2491C83.5473 58.2491 86.2169 60.3064 86.2169 63.5279C78.6399 63.5279 66.2758 63.7085 66.2758 73.8948C66.2758 79.8359 71.2435 82.9871 76.7632 82.9871C80.4563 82.9871 84.0993 81.7126 86.0964 78.5614H86.2169V82.2545ZM52.0853 82.2545H61.1776V36.4214H52.0853V82.2545ZM24.3765 47.3302H29.2238C32.8567 47.3302 37.3427 47.9324 37.3427 52.3581C37.3427 56.3624 34.0109 57.5064 30.669 57.5064H24.3665V47.3202L24.3765 47.3302ZM14.9229 82.2545H24.3765V65.525H31.2912C40.3233 65.525 47.1778 62.434 47.1778 52.3681C47.1778 42.3023 39.7814 39.3317 30.8697 39.3317H14.9229V82.2545Z" fill="white"></path></svg>