<svg xmlns="http://www.w3.org/2000/svg" width="144" height="240" viewBox="0 0 144 240" fill="none"><path d="M141.432 185.572C131.846 224.034 92.8901 247.439 54.4176 237.852C15.966 228.266 -7.4388 189.3 2.14784 150.848C11.7345 112.376 50.69 88.9708 89.1416 98.5574C127.604 108.144 151.008 147.11 141.422 185.572H141.432Z" fill="#F7931A"></path><path d="M103.443 157.978C104.871 148.423 97.5948 143.288 87.6512 139.865L90.8747 126.929L82.9996 124.966L79.8601 137.566C77.7915 137.051 75.66 136.568 73.5495 136.085L76.71 123.401L68.8349 121.438L65.6114 134.374C63.8999 133.985 62.2093 133.597 60.5818 133.187V133.145L49.7247 130.436L47.6246 138.847C47.6246 138.847 53.4732 140.191 53.3472 140.264C56.5392 141.062 57.1167 143.173 57.0222 144.842L53.3472 159.584C53.5677 159.637 53.8512 159.721 54.1662 159.847C53.9037 159.784 53.6202 159.711 53.3367 159.637L48.1811 180.291C47.7926 181.257 46.8056 182.716 44.5691 182.16C44.6426 182.275 38.8465 180.732 38.8465 180.732L34.9404 189.751L45.1886 192.313C47.0996 192.786 48.9686 193.29 50.8062 193.762L47.5511 206.856L55.4157 208.82L58.6393 195.862C60.7918 196.45 62.8708 196.986 64.9184 197.49L61.7053 210.374L69.5804 212.337L72.8355 199.275C86.2652 201.816 96.3663 200.787 100.619 188.649C104.042 178.873 100.451 173.224 93.3843 169.539C98.5293 168.352 102.404 164.961 103.443 157.967V157.978ZM85.4462 183.21C83.0101 192.985 66.5459 187.704 61.2013 186.381L65.5274 169.035C70.8719 170.368 87.9872 173.004 85.4462 183.21ZM87.8822 157.831C85.6562 166.735 71.9535 162.21 67.5014 161.097L71.4284 145.367C75.87 146.48 90.1922 148.549 87.8822 157.831Z" fill="white"></path><path d="M128.415 7.74857C127.143 6.39159 125.135 5.94238 123.329 5.94238C120.447 5.94238 117.564 7.35551 117.564 10.5795C117.564 15.8062 124.714 13.9439 124.714 16.1478C124.714 16.8824 123.755 17.1351 122.791 17.1351C121.518 17.1351 120.587 16.597 119.796 15.6377L117.223 18.4921C118.58 19.8771 120.699 20.3591 122.622 20.3591C125.561 20.3591 128.954 19.339 128.954 15.8343C128.954 10.6076 121.804 12.3295 121.804 10.2941C121.804 9.4752 122.651 9.16169 123.357 9.16169C124.377 9.16169 125.196 9.55475 125.818 10.3221L128.42 7.74857H128.415Z" fill="#231F20"></path><path d="M117.531 0H113.46L111.368 7.97341H114.99L117.531 0Z" fill="#231F20"></path><path d="M101.646 5.93799C97.4061 5.93799 94.0137 8.76424 94.0137 13.144C94.0137 17.5238 97.4061 20.35 101.646 20.35C105.885 20.35 109.277 17.5238 109.277 13.144C109.277 8.76424 105.885 5.93799 101.646 5.93799ZM101.646 16.6207C99.5258 16.6207 98.2531 15.2075 98.2531 13.144C98.2531 11.0805 99.5258 9.66734 101.646 9.66734C103.765 9.66734 105.038 11.0805 105.038 13.144C105.038 15.2075 103.765 16.6207 101.646 16.6207Z" fill="#231F20"></path><path d="M78.3008 20.0131H82.5402V13.1721C82.5402 11.3893 82.8818 9.66733 85.0857 9.66733C87.2896 9.66733 87.2896 11.7028 87.2896 13.2844V20.0131H91.529V12.4374C91.529 8.76424 90.7382 5.93799 86.4426 5.93799C84.3791 5.93799 82.9941 7.07036 82.4279 8.14191H82.3717V6.27489H78.3008V20.0131Z" fill="#231F20"></path><path d="M69.3677 5.93799C67.1357 5.93799 64.8709 6.67263 63.3174 8.14191L65.5775 10.4581C66.4806 9.44273 67.641 8.82039 69.0261 8.82039C70.4953 8.82039 71.74 9.77963 71.74 11.2817C68.2072 11.2817 62.4424 11.3659 62.4424 16.1153C62.4424 18.8854 64.7586 20.3547 67.3322 20.3547C69.0588 20.3547 70.7527 19.7604 71.6839 18.2912H71.74V20.0131H75.6425V13.0317C75.6425 8.45074 74.3136 5.93799 69.3677 5.93799ZM71.74 14.8987C71.74 16.5926 70.1865 17.4723 68.516 17.4723C67.5849 17.4723 66.5086 16.9903 66.5086 15.9749C66.5086 14.1079 69.391 13.9956 70.6919 13.9956H71.74V14.8987Z" fill="#231F20"></path><path d="M55.826 6.27929V8.09015H55.7699C55.1195 7.10283 53.4817 5.94238 51.0766 5.94238C47.1741 5.94238 44.8018 9.44712 44.8018 13.0922C44.8018 17.2474 47.4876 20.186 51.5586 20.186C52.8313 20.186 54.4691 19.704 55.433 18.3751H55.4891V19.704C55.4891 21.6552 54.2725 23.0684 51.6989 23.0684C49.977 23.0684 48.5358 22.3899 47.235 21.2903L44.8907 24.795C46.87 26.3766 49.3593 26.8024 51.7879 26.8024C57.1035 26.8024 59.7285 24.0323 59.7285 18.8617V6.28397H55.826V6.27929ZM52.4336 16.4566C50.5104 16.4566 49.0411 14.847 49.0411 13.0642C49.0411 11.2814 50.5104 9.67173 52.4336 9.67173C54.3568 9.67173 55.826 11.2814 55.826 13.0642C55.826 14.847 54.3568 16.4566 52.4336 16.4566Z" fill="#231F20"></path><path d="M42.3171 6.27979H38.0777V13.1208C38.0777 14.9036 37.7408 16.6256 35.5322 16.6256C33.3236 16.6256 33.3283 14.5901 33.3283 13.0085V6.27979H29.0889V13.8555C29.0889 17.5287 29.8797 20.3549 34.1752 20.3549C36.2387 20.3549 37.6238 19.2225 38.19 18.151H38.2461V20.018H42.3171V6.27979Z" fill="#231F20"></path><path d="M14.6162 20.0131H27.194V15.9468H19.024V0H14.6162V20.0131Z" fill="#231F20"></path><path d="M100.277 82.2545H109.369V67.5823C109.369 63.7587 110.092 60.0655 114.829 60.0655C119.565 60.0655 119.555 64.4311 119.555 67.8232V82.2545H128.648V66.0067C128.648 58.1287 126.952 52.0671 117.739 52.0671C113.313 52.0671 110.343 54.4957 109.128 56.7939H109.008V52.7897H100.277V82.2545ZM86.2167 69.3386V71.2754C86.2167 74.9084 82.8848 76.7951 79.3021 76.7951C77.305 76.7951 74.9968 75.7614 74.9968 73.5837C74.9968 69.5794 81.1788 69.3386 83.9687 69.3386H86.2167ZM86.2167 82.2545H94.5865V67.2812C94.5865 57.4563 91.7364 52.0671 81.1286 52.0671C76.3415 52.0671 71.4943 53.6427 68.1524 56.7939L72.9996 61.7616C74.9365 59.5838 77.4254 58.2491 80.396 58.2491C83.5472 58.2491 86.2167 60.3064 86.2167 63.5279C78.6397 63.5279 66.2757 63.7085 66.2757 73.8948C66.2757 79.8359 71.2434 82.9871 76.763 82.9871C80.4562 82.9871 84.0992 81.7126 86.0963 78.5614H86.2167V82.2545ZM52.0852 82.2545H61.1775V36.4214H52.0852V82.2545ZM24.3765 47.3302H29.2238C32.8567 47.3302 37.3427 47.9324 37.3427 52.3581C37.3427 56.3624 34.0108 57.5064 30.6689 57.5064H24.3665V47.3202L24.3765 47.3302ZM14.9229 82.2545H24.3765V65.525H31.2911C40.3233 65.525 47.1777 62.434 47.1777 52.3682C47.1777 42.3023 39.7814 39.3317 30.8696 39.3317H14.9229V82.2545Z" fill="#231F20"></path></svg>