<svg xmlns="http://www.w3.org/2000/svg" width="236" height="61" viewBox="0 0 236 61" fill="none"><path d="M106.936 26.0068C105.74 24.7317 103.853 24.3096 102.156 24.3096C99.4475 24.3096 96.739 25.6375 96.739 28.667C96.739 33.5785 103.458 31.8285 103.458 33.8995C103.458 34.5898 102.556 34.8273 101.65 34.8273C100.454 34.8273 99.5794 34.3216 98.8363 33.4202L96.418 36.1024C97.6931 37.4039 99.685 37.8568 101.492 37.8568C104.253 37.8568 107.441 36.8983 107.441 33.6049C107.441 28.6934 100.723 30.3115 100.723 28.3988C100.723 27.6293 101.519 27.3347 102.182 27.3347C103.141 27.3347 103.911 27.7041 104.495 28.4252L106.94 26.0068H106.936Z" fill="#231F20"></path><path d="M96.7089 18.7251H92.8834L90.918 26.2176H94.3213L96.7089 18.7251Z" fill="#231F20"></path><path d="M81.7809 24.3052C77.7972 24.3052 74.6094 26.961 74.6094 31.0766C74.6094 35.1922 77.7972 37.848 81.7809 37.848C85.7647 37.848 88.9525 35.1922 88.9525 31.0766C88.9525 26.961 85.7647 24.3052 81.7809 24.3052ZM81.7809 34.3436C79.7891 34.3436 78.5931 33.0157 78.5931 31.0766C78.5931 29.1375 79.7891 27.8096 81.7809 27.8096C83.7728 27.8096 84.9688 29.1375 84.9688 31.0766C84.9688 33.0157 83.7728 34.3436 81.7809 34.3436Z" fill="#231F20"></path><path d="M59.8438 37.5315H63.8275V31.103C63.8275 29.4277 64.1484 27.8096 66.2195 27.8096C68.2905 27.8096 68.2905 29.7223 68.2905 31.2085V37.5315H72.2742V30.4127C72.2742 26.961 71.5311 24.3052 67.4946 24.3052C65.5555 24.3052 64.254 25.3693 63.7219 26.3762H63.6692V24.6218H59.8438V37.5315Z" fill="#231F20"></path><path d="M51.45 24.3052C49.3526 24.3052 47.2244 24.9955 45.7646 26.3762L47.8884 28.5527C48.737 27.5986 49.8275 27.0138 51.129 27.0138C52.5097 27.0138 53.6793 27.9151 53.6793 29.3266C50.3595 29.3266 44.9424 29.4057 44.9424 33.8687C44.9424 36.4718 47.1189 37.8524 49.5373 37.8524C51.1598 37.8524 52.7515 37.294 53.6265 35.9134H53.6793V37.5315H57.3464V30.9711C57.3464 26.6664 56.0977 24.3052 51.45 24.3052ZM53.6793 32.7255C53.6793 34.3172 52.2195 35.1439 50.6497 35.1439C49.7747 35.1439 48.7634 34.691 48.7634 33.7368C48.7634 31.9824 51.472 31.8769 52.6944 31.8769H53.6793V32.7255Z" fill="#231F20"></path><path d="M38.7247 24.6262V26.3278H38.6719C38.0607 25.4 36.5217 24.3096 34.2617 24.3096C30.5945 24.3096 28.3652 27.6029 28.3652 31.0282C28.3652 34.9328 30.8891 37.6941 34.7146 37.6941C35.9105 37.6941 37.4495 37.2413 38.3553 35.9925H38.4081V37.2413C38.4081 39.0748 37.2648 40.4027 34.8465 40.4027C33.2284 40.4027 31.8741 39.7652 30.6517 38.7318L28.4488 42.0252C30.3087 43.5114 32.6479 43.9116 34.93 43.9116C39.925 43.9116 42.3918 41.3085 42.3918 36.4498V24.6306H38.7247V24.6262ZM35.5368 34.1897C33.7296 34.1897 32.3489 32.6771 32.3489 31.0019C32.3489 29.3266 33.7296 27.814 35.5368 27.814C37.344 27.814 38.7247 29.3266 38.7247 31.0019C38.7247 32.6771 37.344 34.1897 35.5368 34.1897Z" fill="#231F20"></path><path d="M26.031 24.626H22.0473V31.0544C22.0473 32.7297 21.7307 34.3478 19.6553 34.3478C17.5799 34.3478 17.5843 32.4351 17.5843 30.9489V24.626H13.6006V31.7448C13.6006 35.1965 14.3437 37.8523 18.3802 37.8523C20.3193 37.8523 21.6208 36.7882 22.1528 35.7813H22.2056V37.5357H26.031V24.626Z" fill="#231F20"></path><path d="M0 37.5312H11.8192V33.7102H4.14201V18.7251H0V37.5312Z" fill="#231F20"></path><path d="M155.25 37.5315H159.234V31.103C159.234 29.4277 159.551 27.8096 161.626 27.8096C163.701 27.8096 163.697 29.7223 163.697 31.2085V37.5315H167.681V30.4127C167.681 26.961 166.938 24.3052 162.901 24.3052C160.962 24.3052 159.661 25.3693 159.128 26.3762H159.076V24.6218H155.25V37.5315ZM149.09 31.8725V32.7211C149.09 34.3128 147.63 35.1395 146.06 35.1395C145.185 35.1395 144.174 34.6866 144.174 33.7324C144.174 31.978 146.883 31.8725 148.105 31.8725H149.09ZM149.09 37.5315H152.757V30.9711C152.757 26.6664 151.508 24.3052 146.861 24.3052C144.763 24.3052 142.64 24.9955 141.175 26.3762L143.299 28.5527C144.148 27.5986 145.238 27.0137 146.54 27.0137C147.92 27.0137 149.09 27.9151 149.09 29.3266C145.77 29.3266 140.353 29.4057 140.353 33.8687C140.353 36.4718 142.53 37.8524 144.948 37.8524C146.566 37.8524 148.162 37.294 149.037 35.9134H149.09V37.5315ZM134.136 37.5315H138.119V17.4502H134.136V37.5315ZM121.996 22.2298H124.119C125.711 22.2298 127.676 22.4936 127.676 24.4327C127.676 26.1871 126.217 26.6884 124.752 26.6884H121.991V22.2254L121.996 22.2298ZM117.854 37.5315H121.996V30.2016H125.025C128.982 30.2016 131.986 28.8473 131.986 24.4371C131.986 20.0269 128.745 18.7253 124.84 18.7253H117.854V37.5315Z" fill="#231F20"></path><path d="M235.105 37.3376C231.091 53.444 214.778 63.245 198.667 59.2305C182.565 55.216 172.764 38.8986 176.778 22.7966C180.793 6.6859 197.106 -3.1151 213.208 0.899397C229.314 4.91389 239.115 21.2313 235.101 37.3376H235.105Z" fill="#F7931A"></path><path d="M219.197 25.7822C219.795 21.7809 216.748 19.6307 212.584 18.1973L213.934 12.7801L210.636 11.9579L209.321 17.2343C208.455 17.0189 207.562 16.8166 206.679 16.6143L208.002 11.3027L204.704 10.4805L203.354 15.8976C202.638 15.7349 201.93 15.5722 201.248 15.4008V15.3832L196.702 14.2487L195.822 17.7708C195.822 17.7708 198.272 18.3336 198.219 18.3644C199.555 18.6985 199.797 19.5823 199.758 20.2815L198.219 26.4549C198.311 26.4769 198.43 26.5121 198.562 26.5648C198.452 26.5384 198.333 26.5077 198.214 26.4769L196.055 35.1259C195.893 35.5304 195.479 36.1416 194.543 35.9085C194.574 35.9569 192.146 35.3105 192.146 35.3105L190.511 39.0876L194.802 40.1605C195.603 40.3583 196.385 40.5694 197.155 40.7673L195.792 46.2504L199.085 47.0726L200.435 41.6467C201.336 41.8929 202.207 42.1171 203.064 42.3282L201.719 47.7234L205.017 48.5456L206.38 43.0757C212.003 44.1398 216.233 43.7089 218.014 38.6259C219.448 34.5323 217.944 32.1667 214.985 30.6233C217.139 30.1264 218.762 28.7062 219.197 25.7778V25.7822ZM211.66 36.3482C210.64 40.4419 203.746 38.2302 201.508 37.6761L203.319 30.4122C205.557 30.9707 212.725 32.0743 211.66 36.3482ZM212.681 25.7206C211.748 29.4493 206.01 27.5542 204.146 27.0881L205.79 20.5013C207.65 20.9674 213.648 21.8336 212.681 25.7206Z" fill="white"></path></svg>